<svg width="190" height="41" viewBox="0 0 190 41" fill="none" xmlns="http://www.w3.org/2000/svg">
<path d="M0.275391 21V17L27.7754 2.5L38.2754 10.5L40.2754 13V17.5L36.2754 17L0.275391 21Z" fill="white"/>
<path d="M15.9148 11.3732C11.7515 14.236 7.35721 17.2323 0.277845 17.2331C0.300948 9.802 0.543384 5.85558 3.08718 3.31177C5.89895 0.500003 10.4244 0.500002 19.4754 0.5H21.0754C30.1264 0.5 34.6519 0.5 37.4637 3.31177C39.4639 5.31197 40.2754 8.5 40.2754 13C39.0252 11.9885 37.116 10.445 34.9068 9.2134C32.5951 7.92472 29.7723 6.83308 26.6753 6.83308C22.5137 6.83308 19.2235 9.09674 16.1066 11.2412L15.9148 11.3732Z" fill="url(#paint0_linear_16424_82929)"/>
<path fill-rule="evenodd" clip-rule="evenodd" d="M40.2754 19.6858C40.2754 18.6548 40.2754 17.6826 40.2712 16.765C39.914 16.7682 39.5529 16.6571 39.2468 16.4237C38.9668 16.2102 38.6423 15.9474 38.3014 15.6714L38.284 15.6573C37.0257 14.6383 35.3168 13.2583 33.2837 12.1249C31.2484 10.9903 28.9966 10.1664 26.6753 10.1664C23.6419 10.1664 21.1627 11.8099 17.8035 14.1198L17.7477 14.1582C13.5588 17.0387 8.42876 20.5664 0.275399 20.5664L0.275391 21.3C0.275391 30.351 0.275391 34.8764 3.08717 37.6882C5.77447 40.3755 10.0271 40.4945 18.2997 40.4997C18.683 40.5 19.0747 40.5 19.4755 40.5H21.0754C21.4762 40.5 21.8678 40.5 22.251 40.4997C30.5237 40.4945 34.7763 40.3755 37.4637 37.6882C40.2754 34.8764 40.2754 30.351 40.2754 21.3V19.6858Z" fill="url(#paint1_linear_16424_82929)"/>
<path fill-rule="evenodd" clip-rule="evenodd" d="M24.876 16.2898C24.876 15.3012 25.6874 14.4998 26.676 14.4998C27.6646 14.4998 28.476 15.3012 28.476 16.2898V32.7098C28.476 33.6984 27.6646 34.4998 26.676 34.4998C25.6874 34.4998 24.876 33.6984 24.876 32.7098V16.2898Z" fill="white"/>
<path fill-rule="evenodd" clip-rule="evenodd" d="M31.2756 20.8901C31.2756 19.9015 32.087 19.1001 33.0756 19.1001C34.0642 19.1001 34.8756 19.9015 34.8756 20.8901V28.1101C34.8756 29.0986 34.0642 29.9001 33.0756 29.9001C32.087 29.9001 31.2756 29.0986 31.2756 28.1101V20.8901Z" fill="white"/>
<path fill-rule="evenodd" clip-rule="evenodd" d="M18.4758 20.8901C18.4758 19.9015 19.2872 19.1001 20.2758 19.1001C21.2644 19.1001 22.0758 19.9015 22.0758 20.8901V28.1101C22.0758 29.0986 21.2644 29.9001 20.2758 29.9001C19.2872 29.9001 18.4758 29.0986 18.4758 28.1101V20.8901Z" fill="white"/>
<path fill-rule="evenodd" clip-rule="evenodd" d="M12.075 23.4899C12.075 22.5013 12.8865 21.6999 13.875 21.6999C14.8636 21.6999 15.675 22.5013 15.675 23.4899V25.5099C15.675 26.4986 14.8636 27.2999 13.875 27.2999C12.8865 27.2999 12.075 26.4986 12.075 25.5099V23.4899Z" fill="white"/>
<path fill-rule="evenodd" clip-rule="evenodd" d="M5.67501 23.4899C5.67501 22.5013 6.48645 21.6999 7.47502 21.6999C8.46362 21.6999 9.27502 22.5013 9.27502 23.4899V25.5099C9.27502 26.4986 8.46362 27.2999 7.47502 27.2999C6.48645 27.2999 5.67501 26.4986 5.67501 25.5099V23.4899Z" fill="white"/>
<path d="M46.351 16.1239V13.27H56.8216V16.1239H53.1739V26.5H49.9798V16.1239H46.351Z" fill="#0F172A"/>
<path d="M60.3851 26.5V23.8729H67.0568V26.5H60.3851ZM60.3851 15.8971V13.27H67.0568V15.8971H60.3851ZM60.3851 20.83V18.2596H66.6788V20.83H60.3851ZM58.2683 13.27H61.3301V26.5H58.2683V13.27Z" fill="#0F172A"/>
<path d="M71.1116 21.8506C71.3762 22.3294 71.6723 22.7452 71.9999 23.098C72.3401 23.4508 72.7055 23.7217 73.0961 23.9107C73.4993 24.0997 73.9214 24.1942 74.3624 24.1942C74.8286 24.1942 75.2129 24.0808 75.5153 23.854C75.8177 23.6146 75.9689 23.2933 75.9689 22.8901C75.9689 22.5499 75.8807 22.279 75.7043 22.0774C75.5279 21.8632 75.2444 21.6616 74.8538 21.4726C74.4632 21.2836 73.9466 21.0694 73.304 20.83C72.989 20.7166 72.6236 20.5591 72.2078 20.3575C71.8046 20.1559 71.4203 19.8976 71.0549 19.5826C70.6895 19.255 70.3871 18.8644 70.1477 18.4108C69.9083 17.9446 69.7886 17.3839 69.7886 16.7287C69.7886 15.9475 69.9902 15.2734 70.3934 14.7064C70.8092 14.1394 71.3636 13.711 72.0566 13.4212C72.7622 13.1188 73.5434 12.9676 74.4002 12.9676C75.2822 12.9676 76.0445 13.1125 76.6871 13.4023C77.3423 13.6921 77.8841 14.0575 78.3125 14.4985C78.7409 14.9395 79.0685 15.3868 79.2953 15.8404L76.8572 17.2012C76.6682 16.8862 76.4477 16.6153 76.1957 16.3885C75.9563 16.1491 75.6854 15.9664 75.383 15.8404C75.0932 15.7018 74.7782 15.6325 74.438 15.6325C73.9844 15.6325 73.6379 15.7333 73.3985 15.9349C73.1591 16.1239 73.0394 16.3633 73.0394 16.6531C73.0394 16.9555 73.1528 17.2201 73.3796 17.4469C73.619 17.6737 73.9529 17.8816 74.3813 18.0706C74.8223 18.2596 75.3515 18.4612 75.9689 18.6754C76.4351 18.8518 76.8698 19.0597 77.273 19.2991C77.6762 19.5259 78.029 19.8031 78.3314 20.1307C78.6464 20.4583 78.8921 20.8363 79.0685 21.2647C79.2449 21.6931 79.3331 22.1845 79.3331 22.7389C79.3331 23.4067 79.1945 24.0052 78.9173 24.5344C78.6527 25.051 78.2873 25.4857 77.8211 25.8385C77.3675 26.1913 76.8446 26.4559 76.2524 26.6323C75.6728 26.8213 75.0743 26.9158 74.4569 26.9158C73.6001 26.9158 72.8 26.7646 72.0566 26.4622C71.3258 26.1472 70.6895 25.7251 70.1477 25.1959C69.6059 24.6667 69.1838 24.0871 68.8814 23.4571L71.1116 21.8506Z" fill="#0F172A"/>
<path d="M80.1458 16.1239V13.27H90.6164V16.1239H86.9687V26.5H83.7746V16.1239H80.1458Z" fill="#0F172A"/>
<path d="M94.4254 5.275H97.5754V35.725H94.4254V5.275Z" fill="#0F172A"/>
<path d="M105.959 22.1796C106.351 22.8656 106.801 23.4634 107.311 23.973C107.821 24.463 108.369 24.8354 108.957 25.0902C109.565 25.345 110.173 25.4724 110.78 25.4724C111.29 25.4724 111.721 25.3744 112.074 25.1784C112.427 24.9628 112.603 24.6296 112.603 24.1788C112.603 23.9044 112.505 23.6692 112.309 23.4732C112.133 23.2772 111.77 23.0518 111.221 22.797C110.672 22.5422 109.839 22.1992 108.722 21.768C108.232 21.572 107.664 21.3074 107.017 20.9742C106.39 20.641 105.782 20.2098 105.194 19.6806C104.626 19.1514 104.146 18.5046 103.754 17.7402C103.381 16.9758 103.195 16.0742 103.195 15.0354C103.195 13.683 103.558 12.5462 104.283 11.625C105.008 10.7038 105.968 10.008 107.164 9.5376C108.36 9.0672 109.673 8.832 111.104 8.832C112.652 8.832 113.975 9.0672 115.073 9.5376C116.19 10.008 117.101 10.596 117.807 11.3016C118.532 12.0072 119.081 12.7128 119.453 13.4184L114.661 16.0644C114.347 15.5744 113.995 15.1922 113.603 14.9178C113.23 14.6238 112.848 14.4082 112.456 14.271C112.064 14.1338 111.682 14.0652 111.309 14.0652C110.859 14.0652 110.486 14.1436 110.192 14.3004C109.918 14.4572 109.781 14.7022 109.781 15.0354C109.781 15.447 109.977 15.79 110.369 16.0644C110.78 16.3192 111.319 16.5642 111.986 16.7994C112.652 17.015 113.387 17.2698 114.191 17.5638C115.014 17.8578 115.749 18.2106 116.396 18.6222C117.042 19.0142 117.591 19.4748 118.042 20.004C118.512 20.5332 118.865 21.131 119.1 21.7974C119.336 22.4442 119.453 23.1694 119.453 23.973C119.453 25.1098 119.218 26.1192 118.748 27.0012C118.277 27.8636 117.64 28.579 116.837 29.1474C116.053 29.7158 115.161 30.147 114.161 30.441C113.162 30.735 112.133 30.882 111.074 30.882C109.604 30.882 108.232 30.637 106.958 30.147C105.704 29.6766 104.616 29.02 103.695 28.1772C102.774 27.3344 102.078 26.3936 101.607 25.3548L105.959 22.1796Z" fill="#2563EB"/>
<path d="M121.508 11.7132C121.508 10.8508 121.811 10.155 122.419 9.6258C123.046 9.0966 123.801 8.832 124.683 8.832C125.565 8.832 126.31 9.0966 126.917 9.6258C127.544 10.155 127.858 10.8508 127.858 11.7132C127.858 12.5756 127.544 13.2714 126.917 13.8006C126.31 14.3298 125.565 14.5944 124.683 14.5944C123.801 14.5944 123.046 14.3298 122.419 13.8006C121.811 13.2714 121.508 12.5756 121.508 11.7132ZM121.919 16.476H127.417V30H121.919V16.476Z" fill="#2563EB"/>
<path d="M130.067 31.029H135.565C135.643 31.519 135.79 31.8914 136.006 32.1462C136.221 32.401 136.486 32.5676 136.799 32.646C137.133 32.744 137.495 32.793 137.887 32.793C138.475 32.793 138.975 32.6656 139.387 32.4108C139.798 32.1756 140.112 31.8228 140.327 31.3524C140.543 30.9016 140.651 30.3528 140.651 29.706V16.476H146.09V29.706C146.09 31.5484 145.747 33.0184 145.061 34.116C144.375 35.2136 143.434 35.9976 142.238 36.468C141.062 36.958 139.71 37.203 138.181 37.203C136.28 37.203 134.761 36.9384 133.624 36.4092C132.507 35.8996 131.674 35.1744 131.125 34.2336C130.596 33.3124 130.243 32.2442 130.067 31.029ZM129.773 22.944C129.773 21.376 130.077 20.102 130.684 19.122C131.311 18.1224 132.105 17.3874 133.066 16.917C134.026 16.427 135.016 16.182 136.035 16.182C137.172 16.182 138.181 16.4466 139.063 16.9758C139.965 17.4854 140.68 18.24 141.209 19.2396C141.739 20.2392 142.003 21.474 142.003 22.944C142.003 24.3944 141.739 25.6292 141.209 26.6484C140.68 27.648 139.965 28.4124 139.063 28.9416C138.181 29.4512 137.172 29.706 136.035 29.706C135.016 29.706 134.026 29.4708 133.066 29.0004C132.105 28.5104 131.311 27.7656 130.684 26.766C130.077 25.7664 129.773 24.4924 129.773 22.944ZM135.829 22.944C135.829 23.434 135.937 23.8554 136.153 24.2082C136.368 24.561 136.662 24.8354 137.035 25.0314C137.407 25.2078 137.809 25.296 138.24 25.296C138.632 25.296 139.014 25.2176 139.387 25.0608C139.759 24.8844 140.063 24.6296 140.298 24.2964C140.533 23.9436 140.651 23.4928 140.651 22.944C140.651 22.5324 140.582 22.1796 140.445 21.8856C140.308 21.5916 140.122 21.3466 139.886 21.1506C139.651 20.9546 139.387 20.8174 139.093 20.739C138.818 20.641 138.534 20.592 138.24 20.592C137.809 20.592 137.407 20.69 137.035 20.886C136.662 21.0624 136.368 21.327 136.153 21.6798C135.937 22.013 135.829 22.4344 135.829 22.944Z" fill="#2563EB"/>
<path d="M157.843 21.768C157.843 21.1604 157.755 20.69 157.578 20.3568C157.402 20.004 157.02 19.8276 156.432 19.8276C156.099 19.8276 155.805 19.8962 155.55 20.0334C155.295 20.1706 155.099 20.3862 154.962 20.6802C154.825 20.9546 154.756 21.3172 154.756 21.768V30H149.023V16.476H154.756V18.4458C155.128 17.7598 155.648 17.211 156.314 16.7994C157 16.3682 157.872 16.1526 158.931 16.1526C160.773 16.1526 162.057 16.5936 162.782 17.4756C163.507 18.338 163.87 19.5728 163.87 21.18V30H157.843V21.768Z" fill="#2563EB"/>
<path d="M171.704 25.737C171.704 25.9918 171.763 26.2074 171.881 26.3838C172.018 26.5406 172.184 26.668 172.38 26.766C172.596 26.8444 172.821 26.8836 173.057 26.8836C173.429 26.8836 173.782 26.8052 174.115 26.6484C174.468 26.472 174.752 26.2074 174.967 25.8546C175.203 25.4822 175.32 25.002 175.32 24.414L175.791 26.178C175.791 27.0404 175.575 27.7852 175.144 28.4124C174.713 29.02 174.125 29.4904 173.38 29.8236C172.635 30.1372 171.792 30.294 170.852 30.294C169.969 30.294 169.156 30.1372 168.411 29.8236C167.667 29.51 167.069 29.0396 166.618 28.4124C166.167 27.7656 165.942 26.9816 165.942 26.0604C165.942 24.7668 166.393 23.7574 167.294 23.0322C168.215 22.2874 169.538 21.915 171.263 21.915C171.969 21.915 172.645 21.9738 173.292 22.0914C173.958 22.209 174.546 22.3756 175.056 22.5912C175.585 22.7872 175.996 23.042 176.29 23.3556V25.6782C175.957 25.3842 175.507 25.149 174.938 24.9726C174.389 24.7962 173.821 24.708 173.233 24.708C172.861 24.708 172.557 24.7472 172.322 24.8256C172.106 24.904 171.949 25.0216 171.851 25.1784C171.753 25.3156 171.704 25.5018 171.704 25.737ZM168.735 21.2388L167 17.5344C167.941 17.162 168.999 16.819 170.175 16.5054C171.371 16.1918 172.616 16.035 173.909 16.035C175.183 16.035 176.34 16.2114 177.378 16.5642C178.417 16.917 179.24 17.4364 179.848 18.1224C180.456 18.7888 180.759 19.612 180.759 20.592V30H175.32V22.0032C175.32 21.7484 175.281 21.5132 175.203 21.2976C175.124 21.082 174.997 20.8958 174.821 20.739C174.644 20.5626 174.409 20.4352 174.115 20.3568C173.821 20.2588 173.468 20.2098 173.057 20.2098C172.508 20.2098 171.93 20.2784 171.322 20.4156C170.714 20.5332 170.175 20.6802 169.705 20.8566C169.235 21.0134 168.911 21.1408 168.735 21.2388Z" fill="#2563EB"/>
<path d="M183.706 7.068H189.439V30H183.706V7.068Z" fill="#2563EB"/>
<defs>
<linearGradient id="paint0_linear_16424_82929" x1="94.8524" y1="0.5" x2="94.8524" y2="96.119" gradientUnits="userSpaceOnUse">
<stop stop-color="#2563EB"/>
<stop offset="0.21" stop-color="#1954D5"/>
<stop offset="0.52" stop-color="#164FCD"/>
<stop offset="0.79" stop-color="#295ED3"/>
<stop offset="1" stop-color="#1B4CB6"/>
</linearGradient>
<linearGradient id="paint1_linear_16424_82929" x1="94.8571" y1="-12.2473" x2="94.8571" y2="40.4996" gradientUnits="userSpaceOnUse">
<stop stop-color="#2563EB"/>
<stop offset="0.21" stop-color="#1954D5"/>
<stop offset="0.52" stop-color="#164FCD"/>
<stop offset="0.79" stop-color="#295ED3"/>
<stop offset="1" stop-color="#1B4CB6"/>
</linearGradient>
</defs>
</svg>
